<svg width="32" height="32" viewBox="0 0 32 32" fill="none" xmlns="http://www.w3.org/2000/svg">
<g id="24 / basic / box">
<path id="icon" fill-rule="evenodd" clip-rule="evenodd" d="M26.2394 25.1887V12.322C27.6606 12.322 28.8127 11.1699 28.8127 9.74864V7.17529C28.8127 5.75407 27.6606 4.60194 26.2394 4.60194H5.65263C4.23141 4.60194 3.07928 5.75407 3.07928 7.17529V9.74864C3.07928 11.1699 4.23141 12.322 5.65263 12.322V25.1887C5.65263 26.6099 6.80476 27.7621 8.22598 27.7621H23.6661C25.0873 27.7621 26.2394 26.6099 26.2394 25.1887ZM8.22596 25.1887V12.322H23.666V25.1887H8.22596ZM12.086 16.182V13.6086H19.806V16.182H12.086ZM5.65266 9.74864V7.17529H26.2394V9.74864H5.65266Z" fill="black" fill-opacity="0.54"/>
</g>
</svg>
